<?xml version="1.0" encoding="utf-8"?>
<!-- Generator: Adobe Illustrator 14.0.0, SVG Export Plug-In . SVG Version: 6.00 Build 43363)  -->
<!DOCTYPE svg PUBLIC "-//W3C//DTD SVG 1.1//EN" "http://www.w3.org/Graphics/SVG/1.1/DTD/svg11.dtd">
<svg version="1.1" id="Layer_1" xmlns="http://www.w3.org/2000/svg" xmlns:xlink="http://www.w3.org/1999/xlink" x="0px" y="0px"
	 width="74.999px" height="91.163px" viewBox="0.001 0 74.999 91.163" enable-background="new 0.001 0 74.999 91.163"
	 xml:space="preserve">
<path fill="#333333" d="M21.378,57.188c-1.809,0.234-3.891,0.314-5.805-0.119c-0.694-0.159-1.292-0.633-1.978-0.741
	c-0.902-0.146-1.817,0.211-2.469-0.496c-0.407-1.858,1.316-4.72,3.085-4.199c1.704,0.496,3.482,2.517,5.314,2.595
	C20.364,55.117,22.265,55.607,21.378,57.188 M43.609,52.372c1.683-0.153,1.849,3.239,0.248,3.706
	c-0.893,0.263-2.188-0.325-2.221-1.483C41.611,53.79,42.84,52.441,43.609,52.372 M36.819,53.361
	c-0.018,0.602,0.065,1.303-0.126,1.728c-1.283,0.892-3.061-0.071-3.086-1.235C33.57,52.202,36.03,51.928,36.819,53.361
	 M27.922,54.966c1.918,1.697-0.008,6.129-2.346,3.952c-0.544-0.509-1.015-2.484-0.739-3.088C25.292,54.83,26.2,54.943,27.922,54.966
	 M42.624,60.648c-1.118,0.64-3.101,1.224-4.323,0.369c-0.293-2.287-0.269-5.914,2.346-5.559c0.569,0.562,0.324,1.205,0.619,1.854
	C41.755,58.395,43.434,59.012,42.624,60.648 M32.495,55.708c0.586-0.043,2.91,1.476,2.842,2.716
	c-0.061,1.062-1.575,2.068-2.595,1.979C30.418,60.191,29.061,55.957,32.495,55.708 M65.598,55.584
	c1.123,1.023,1.893,4.014,1.111,5.438c-1.048,0.422-1.598-0.443-2.841-0.744c-2.693-0.648-6.569,0.263-8.278-0.123
	c-0.902-0.204-2.503-0.887-2.1-2.223c0.219-0.722,1.754-0.719,2.721-0.865c1.459-0.223,3.837-1.053,5.186-1.111
	c0.623-0.027,1.263,0.146,1.606,0.125C63.93,56.016,64.57,55.451,65.598,55.584 M47.934,59.906c-1.541,1.308-3.908-0.076-4.57-1.481
	c0.742-1.243,2.588-2.995,4.201-1.854C47.846,57.48,48.268,58.782,47.934,59.906 M23.726,58.425c0.11,2.095-2.384,3.031-3.954,4.199
	c-0.711,0.528-1.292,1.228-1.852,1.481c-0.818,0.373-1.767,0.358-2.594,0.619c-3.047,0.955-5.5,1.994-9.14,2.592
	c-0.941,0.156-1.904,0.615-2.594,0.371c-0.751-0.269-1.497-1.717-1.973-2.348c-0.902-1.186-2.002-2.445-1.485-4.199
	c0.308-1.035,2.739-4.255,3.955-4.076c1.532,0.228,3.313,1.271,5.435,1.359c1.243,0.053,2.593-0.217,3.951,0
	c1.667,0.262,3.041,0.643,4.571,0.493C20.177,58.712,22.007,57.795,23.726,58.425 M13.225,63.365c0.487,0.3,1.175-0.098,1.113-0.741
	C13.769,62.674,13.217,62.739,13.225,63.365 M5.816,63.242c0.399,2.044,3.167-0.055,4.938,0.74
	C10.08,62.09,7.053,63.426,5.816,63.242 M56.087,67.564c-2.51-0.414-3.483-2.362-5.188-3.582c-0.006-0.879-0.332-1.471,0-2.1
	c0.31-0.578,2.482-1.303,3.211-1.359c1.591-0.125,2.961,1.029,4.324,1.359c1.276,0.311,2.448,0.293,3.705,0.74
	c0.959,0.342,1.877,0.982,2.965,1.359c1.131,0.395,2.442,0.52,3.58,0.863c1.129,0.342,2.189,0.814,3.211,1.111
	c1.344,0.391,2.906,0.809,3.09,2.1c0.121,0.859-0.514,1.442-0.864,2.471c-0.271,0.793-0.21,1.8-0.493,2.347
	c-0.154,0.295-0.945,0.865-1.361,1.235c-0.802,0.718-2.129,2.637-3.701,2.595c-0.979-0.027-1.619-1.324-2.35-1.853
	C62.868,72.421,59.366,70.359,56.087,67.564 M64.609,68.43c0.787,0.391,1.902-0.17,1.358-1.111
	C65.07,67.242,64.663,67.662,64.609,68.43 M40.646,64.354c2.065-0.801,5.16-4.238,6.547-0.742c0.619,0.367,1.182,0.314,1.73,0.742
	c0.473,0.371,0.592,1.049,0.986,1.481c0.592,0.646,1.556,0.872,2.222,1.481c0.815,0.744,1.815,2.11,2.597,3.09
	c1.103,1.383,2.289,2.537,4.074,3.087c0.299,1.082,1.412,1.508,2.1,2.347c0.197,0.236,0.266,0.791,0.494,1.112
	c0.572,0.786,1.369,1.047,1.482,1.728c0.159,0.935-0.999,3.604-1.357,4.2l-0.985,0.987c-0.253,0.367-0.239,0.895-0.498,1.236
	c-2.195,2.938-5.248,2.016-9.263,1.482c-1.092-0.146-2.362,0.128-3.088-0.123c-0.434-0.15-2.121-1.641-2.344-2.349
	c-0.242-0.751-0.097-1.634-0.251-2.47c-0.081-0.451-0.382-0.898-0.493-1.358c-0.363-1.533-0.404-3.22-0.742-4.694
	c-0.238-1.049-0.776-2.258-1.111-3.458c-0.354-1.278-0.295-2.756-0.617-3.582C41.671,67.372,40.48,66.372,40.646,64.354
	 M51.268,69.91c-0.082-1.189-1.062-1.487-1.978-1.852C49.523,69.104,49.908,69.996,51.268,69.91 M52.627,71.889v0.369
	c0.438,0.676,1.178,1.049,2.1,1.236c0.504,0.443,0.422,1.474,1.358,1.482C55.829,73.618,54.448,71.682,52.627,71.889 M57.568,79.422
	c-0.952,0.191-1.967,0.15-2.594,0.371c-1.84,0.645-3.682,2.439-4.447,3.829c1.518,1.14,4.875,1.334,6.672,0.493
	c0.417-0.735,1.039-1.268,1.232-2.223c1.018-0.426,1.838-1.043,1.856-2.472C59.459,78.438,58.542,79.227,57.568,79.422
	 M11.374,35.575c1.215-0.839,0.621-3.88,0.492-5.56c-0.108-1.443,0.406-4.104,1.36-4.075c1.135,0.033,0.821,3.004,1.112,4.2
	c0.097,0.408,0.382,1.024,0.617,1.605c0.753,1.853,1.47,3.13,3.211,4.076c0.412,1.031,1.312,1.572,2.1,2.222
	c2.861,3.559,4.042,9.689,1.729,14.205c-2.983,0.37-3.282-2.962-5.684-3.583c-0.748,0.241-0.042,1.933-0.74,2.226
	c-2.076-0.562-4.027-2.017-6.3-2.843c-0.979-0.356-1.986-0.379-2.842-0.864c-2.597-1.477-4.842-4.262-4.446-8.273
	c2.116,0.073,2.444,2.99,4.818,3.211c0.549-0.85-0.443-1.333-0.742-1.978c-0.759-1.65-1.237-3.714-1.604-5.805
	c-0.493-2.811-0.346-7.015,0.37-10.004c0.026-1.763-1.272-3.68,0-4.941c1.097-0.011,1.886,1.174,2.346,2.099
	c1.059,2.123,2.049,5.136,2.225,7.781c0.106,1.604,0.282,4.214,0.74,4.693C10.387,34.666,10.68,35.321,11.374,35.575 M13.842,41.75
	c-0.75,0.19-2.557-0.64-3.211-1.234c-0.948-0.863-1.149-2.32-2.099-2.842c0.044,1.584,0.505,2.365,0.99,3.459
	c0.802,1.823,2.262,3.136,4.199,3.457c0.993,0.166,2.076-0.048,3.088,0.247c1.562,0.459,2.384,1.854,3.086,2.964
	c0.833-5.692-3.511-7.278-5.312-10.745h-0.372C14.002,38.385,15.595,41.307,13.842,41.75 M35.583,0
	c0.981,0.43,0.404,2.026,1.356,2.594c0.849,3.484,1.94,7.896,2.103,11.859c0.015,0.417-0.187,0.725-0.125,1.111
	c0.036,0.226,0.522,0.127,0.125,0.493c0.687-0.017,1.585-1.142,1.851-1.976c0.303-0.942,0.979-2.514,1.114-3.335
	c0.31-1.915-1.14-3.674-0.249-5.188c4.112,0.833,4.141,7.43,3.46,10.869c-0.507,2.562-1.665,5.377-2.099,7.907
	c-0.279,1.612-0.383,3.368,0.615,4.693c1.209-0.191,1.344-1.455,1.482-2.719c1.112-2.231,2.643-4.366,3.458-7.042
	c0.701-2.303,0.464-5.088,1.356-7.285c1.498-0.26,1.373,1.094,2.101,1.605c-0.081,1.11,0.283,2.014,0.372,3.088
	c0.258,3.155-0.939,6.259-1.236,9.017c-0.131,1.214-0.297,2.612,0.494,3.581c1.555-0.749,2.457-2.152,2.842-4.074
	c3.227-2.682,1.668-10.56,2.348-16.676c0.195-1.787,0.824-2.858,2.346-2.099c0.586,1.102,0.059,2.016,0.126,3.087
	c0.353,5.737,5.642,10.801,5.806,17.417c0.021,0.974-0.194,2.13-0.248,3.212c-0.105,2.137-1.08,3.446-1.482,5.312
	c1.236,0.436,1.51-1.195,1.977-2.226c0.43-0.945,1.092-2.136,1.237-3.086c0.183-1.245-0.364-5.064,1.356-4.447
	c0.938,0.336,0.521,1.53,0.617,2.47c0.244,2.318,1.785,4.205,1.977,6.794c0.382,5.142-3.996,6.664-6.176,9.512
	c2.176,0.56,3.838-0.496,5.066-1.729c0.471-0.478,1.047-0.86,1.233-1.237c0.476-0.962,0.129-3.388,1.11-3.58
	c1.84-0.363,1.424,4.085,1.11,5.187c-0.506,1.786-1.905,3.672-3.211,4.569c-1.069,0.737-2.479,0.982-3.704,1.731
	c-1.018,0.614-1.697,1.601-2.72,2.099c-0.442,0.706-1.168,2.42-2.099,2.346c-0.737-0.06-0.514-0.838-1.238-1.232
	c-1.346,0.488-2.33,2.663-4.072,1.605c-0.529-1.451,1.361-2.438,0.491-3.83c-1.451,0.611-2.288,2.947-4.198,1.977
	c-0.943-1.4,1.251-4.946-0.865-5.188c-1.84-0.211-1.565,3.418-3.953,2.592c-0.65-1.454-0.608-6.068-3.086-5.186
	c-0.633,0.225-0.894,1.307-1.359,2.223l-1.111,2.348c-0.812,1.577-1.558,3.678-3.459,3.212c-0.672-1.843,1.094-5.429-1.358-6.054
	c-1.467,0.812-0.946,4.486-2.594,4.449c-1.719-0.043-0.412-3.492-2.103-3.832c-1.948,0.789-1.646,5.201-3.826,5.685
	c-0.951,0.21-2.033-0.526-2.965-0.866c-0.384-0.795,0.833-1.953,0.99-2.964c0.181-1.181-0.288-4.33-0.62-5.31
	c-0.731-2.169-2.381-4.089-3.705-6.053c-1.711-2.542-3.945-4.376-4.814-7.658c-0.086-0.311,0.036-0.766,0-1.237
	c-0.041-0.464-0.324-0.891-0.374-1.357c-0.452-4.49,1.773-9.618,1.978-14.328c0.054-1.215-0.831-5.137,0.495-5.558
	c2.179-0.694,3.323,3.502,3.458,4.94c0.228,2.435-0.147,4.067,0.244,6.052c1.5-0.624,1.468-2.201,2.1-3.458
	c0.791-1.566,2.039-3.213,3.088-4.817c1.01-1.545,2.318-3.022,3.212-4.57c0.287-0.494,0.361-1.256,0.617-1.854
	c0.457-1.059,1.095-1.875,1.233-3.334C34.323,0.308,34.96,0.159,35.583,0 M32.124,20.133c-1.113,1.978-2.829,4.398-2.841,7.165
	c-0.005,1.417,0.922,2.571,0.125,3.829c-2.176-0.707-2.956-2.81-4.201-4.446c-1.829,6.455,4.881,9.572,4.693,15.068
	c-0.045,1.378-0.558,2.598,0.617,3.953c1.735-2.219,4.79-3.116,6.674-5.187c0.034-1.475,1.571-2.508,1.727-4.201
	c0.162-1.755-0.324-3.835-1.356-4.94c-0.199,1.202-0.126,2.675-1.112,3.086c-0.438-0.67-1.205-1.31-1.608-2.099
	c-0.469-0.921-1.008-1.344-1.359-2.099c-0.354-0.764-0.66-1.918-0.862-2.843c-0.483-2.191-0.418-4.833-0.25-7.534
	c-0.156-0.007-0.168-0.159-0.366-0.125C32.022,19.907,31.979,20.114,32.124,20.133 M45.835,39.65
	c0.416,1.253,1.299,2.456,2.47,3.211c0.355,0.877,0.6,1.873,0.741,2.964c1.097-1.776,4.748-2.682,4.94,0.247
	c1.555-0.714,2.561-1.969,3.951-2.842c2.567-1.095,4.818-2.51,6.424-4.569c-1.784,0.742-3.883,0.027-5.68,0.246
	c-1.482,0.18-2.451,1.404-3.582,1.112c2.021-2.729,5.022-5.076,4.322-10.128c-1.303,0.701-1.006,1.863-2.102,2.717
	c-0.731,0.573-2.133,1.081-3.086,1.236c-1.256,0.204-2.434-0.023-3.215,0.617c-0.922,0.759-0.658,2.044-1.234,3.089
	c-2.608-1.378-1.521-5.495-1.727-8.4c-0.029-0.098-0.105-0.144-0.248-0.123C47.346,32.127,44.586,35.891,45.835,39.65
	 M28.296,63.118c-0.154,0.669-0.447,1.2-0.742,1.729c0.736,1.109-0.376,2.358-0.123,4.323c-1.334,1.013-2.617,2.075-3.336,3.706
	c-2.648,1.639-5.707,3.278-8.398,5.188c-0.671,0.477-1.114,1.213-1.729,1.604c-0.686,0.438-1.931,1-2.72,1.606
	c-0.501,0.385-1.047,1.137-1.482,1.233c-1.379,0.32-2.6-0.674-4.076-0.985c-1.305-0.277-2.395,0.129-3.582-0.496
	c-0.74-1.28-0.367-2.707-0.491-4.075c-0.16-1.659-0.879-2.988-0.499-5.435c1.42-1.021,3.115-0.636,4.696-1.234
	c0.584-0.223,1.032-0.735,1.605-0.988c1.052-0.468,2.471-0.695,3.705-1.234c1.152-0.504,2.208-1.316,3.334-1.605
	c1.459-0.376,2.669-0.549,3.832-1.234c0.658-0.393,1.078-1.048,1.727-1.481c1.49-1.003,4.25-2.065,5.805-2.718
	C26.965,60.54,27.673,62.615,28.296,63.118 M18.167,71.889c-0.918,1.674-3.735,1.454-4.323,3.459c2.354-0.898,4.735-1.771,6.3-3.459
	C19.788,71.037,18.779,72.12,18.167,71.889 M8.41,74.977c-0.752-0.521-2.487-0.684-3.46-0.246c-0.215,1.84,0.163,4.105,2.101,4.199
	C7.956,77.996,9.241,76.57,8.41,74.977 M36.694,69.541c0.858-0.997,0.207-3.501,2.472-3.087c0.955,0.918,0.316,2.246,0.246,3.456
	c-0.115,1.973-0.167,4.232-0.246,6.425c-0.12,3.317,0.677,6.572-0.495,9.265c-0.205,0.476-0.442,1.244-0.616,1.481
	c-0.396,0.541-1,0.556-1.728,0.985c-0.438,0.261-0.806,0.742-1.238,0.988c-0.549,0.314-1.148,0.397-1.607,0.62
	c-1.027,0.495-1.869,1.579-3.211,1.482c-0.714-0.054-0.945-0.697-1.604-1.238c-0.732-0.598-1.75-0.83-2.222-1.235
	c-0.311-0.26-0.669-0.867-0.991-1.234c-0.787-0.897-3.953-3.646-1.977-4.815c0.515-3.819,2.614-6.395,3.707-10.004
	c0.386-1.272,0.802-2.798,1.234-4.202c0.813-2.63,1.121-4.777,3.09-6.05c2.106,1.149,6.689-2.433,6.67,0.864
	c-0.005,0.986-1.291,1.464-1.607,2.345C36.046,67.048,36.912,68.155,36.694,69.541 M35.829,79.053
	c0.305-1.397,1.319-3.269,0.247-4.324C36.176,76.123,34.44,78.354,35.829,79.053 M30.395,81.77c-0.717,1.17-3.664,0.561-3.706,2.101
	c-0.017,0.672,1.166,1.43,1.854,1.978c0.622,0.496,1.566,1.478,2.348,1.604c1.752,0.29,4.525-1.308,4.938-2.347
	C34.164,83.845,33.433,81.652,30.395,81.77"/>
</svg>
