<?xml version="1.0" encoding="utf-8"?>
<!-- Generator: Adobe Illustrator 14.0.0, SVG Export Plug-In . SVG Version: 6.00 Build 43363)  -->
<!DOCTYPE svg PUBLIC "-//W3C//DTD SVG 1.1//EN" "http://www.w3.org/Graphics/SVG/1.1/DTD/svg11.dtd">
<svg version="1.1" id="Layer_1" xmlns="http://www.w3.org/2000/svg" xmlns:xlink="http://www.w3.org/1999/xlink" x="0px" y="0px"
	 width="55.541px" height="31.396px" viewBox="9.73 5.499 55.541 31.396" enable-background="new 9.73 5.499 55.541 31.396"
	 xml:space="preserve">
<path fill="#333333" d="M65.266,21.096l-0.007-0.069l-0.002-0.035l-0.007-0.049l-0.01-0.058v-0.007
	c-0.071-0.429-0.271-0.832-0.581-1.142c-1.771-2.1-3.878-3.968-6.022-5.676c-4.613-3.678-9.893-6.755-15.722-7.993
	c-3.367-0.716-6.756-0.746-10.142-0.141c-3.078,0.552-6.046,1.697-8.825,3.116c-4.346,2.222-8.317,5.285-11.778,8.718
	c-0.641,0.636-1.277,1.284-1.858,1.975c-0.776,0.92-0.776,2.008,0,2.925c1.772,2.1,3.878,3.969,6.021,5.676
	c4.617,3.678,9.895,6.753,15.722,7.993c3.368,0.714,6.759,0.745,10.142,0.141c3.08-0.551,6.049-1.698,8.826-3.114
	c4.35-2.225,8.319-5.285,11.778-8.72c0.644-0.635,1.278-1.284,1.858-1.974c0.312-0.311,0.514-0.713,0.583-1.145V21.51l0.01-0.057
	l0.006-0.049l0.005-0.035l0.006-0.068l0.002-0.104L65.266,21.096z M37.499,31.884c-5.902,0-10.686-4.784-10.686-10.686
	c0-5.902,4.784-10.686,10.686-10.686c5.901,0,10.687,4.784,10.687,10.686C48.186,27.1,43.4,31.884,37.499,31.884z"/>
<circle fill="#333333" cx="37.499" cy="21.198" r="3.538"/>
</svg>
