<?xml version="1.0" encoding="utf-8"?>
<!-- Generator: Adobe Illustrator 14.0.0, SVG Export Plug-In . SVG Version: 6.00 Build 43363)  -->
<!DOCTYPE svg PUBLIC "-//W3C//DTD SVG 1.1//EN" "http://www.w3.org/Graphics/SVG/1.1/DTD/svg11.dtd">
<svg version="1.1" id="Layer_1" xmlns="http://www.w3.org/2000/svg" xmlns:xlink="http://www.w3.org/1999/xlink" x="0px" y="0px"
	 width="74.997px" height="75.394px" viewBox="0 0.001 74.997 75.394" enable-background="new 0 0.001 74.997 75.394"
	 xml:space="preserve">
<path fill="#3C453D" d="M48.613,4.935c0.371,0.133,0.89-0.099,1.357,0.097c0.114,0.305,0.326,0.513,0.387,0.873
	c0.998,0.542,1.608,0.948,2.908,0.676c0.881-0.183,1.271-0.936,2.029-0.871c0.826,0.072,1.102,0.723,1.163,1.938
	c0.465,0.127,0.854,0.05,1.547,0.098c-0.79-2.662,3.772-3.162,2.617-0.485c-0.576,0.027-0.407-0.688-0.772-0.872
	c-1.195-0.192-0.725,1.28-0.971,2.034c-0.542,0.415-1.889,0.36-2.615,0.29c-0.633-0.442-0.832-1.354-0.969-2.033
	c-1.312,0.359-2.417,1.28-3.873,0.873c-0.785-0.22-1.488-0.869-2.035-1.453c-1.101,0.166-1.207-0.663-1.742-1.066
	C47.486,4.35,47.732,3.813,47.55,3.29c-0.644-1.827-5.76-1.627-7.358-0.774c-0.232,0.349-0.523,0.64-0.485,1.066
	c0.045,0.476,0.587,0.704,0.681,1.258c0.112,0.691-0.297,1.048-0.389,1.84c-0.68,0.343-1.614,1.062-2.521,0.582
	c-0.787,1.229-2.65,0.603-3.29-0.388c-0.522-0.038-0.47,0.501-0.972,0.485c-1.027-0.332-1.599-1.112-2.129-1.938
	c-1.169,0.041-1.265-0.993-2.518-0.873c-0.367,0.244-0.35,0.878-0.68,1.163c-0.253,0.166-0.828,0.011-1.064,0.195
	c-0.425,0.446-0.385,1.359-0.773,1.84c-0.566-0.051-0.698,0.336-1.163,0.388c0.022,0.602,0.038,1.198-0.292,1.451
	c-1.494,0.453-2.38-1.567-3.484-1.356c-0.485,0.093-0.895,0.598-0.774,1.356c0.183,1.172,1.842,0.526,1.842,2.035
	c-1.267,0.133-1.953-1.209-3.392-1.064c-0.782,0.076-1.333,0.56-2.131,0.579c-0.326,0.331-0.535,0.925-0.582,1.259
	c0.156,0.619,1.119,0.432,1.067,1.259c-0.617,0.404-1.328-0.377-1.938-0.582c-0.572-1.853,2.011-2.641,0.291-3.583
	c-0.341,0.093-0.337,0.575-0.58,0.776c-0.115,0.093-0.576,0.06-0.775,0.192c-0.56,0.374-0.485,1.034-0.966,1.163
	c-1.015,0.27-1.409-0.492-2.326,0.29c-0.642,0.547-1.182,1.306-1.258,2.422c0.347,0.765,1.139,0.571,1.645,1.066
	c-0.382,1.165-1.719-0.06-2.324-0.195c-0.061-0.665-0.427-1.143-0.388-1.646c0.095-1.197,1.541-1.72,1.839-2.809
	c0.542-0.113,1.51-0.099,2.424-0.097c0.432-0.954,1.758-1.017,2.035-2.13c1.553-0.202,1.669,1.04,2.611,1.452
	c0.495-0.182,1.121-0.235,1.84-0.192c-0.005-1.783,1.24-2.901,3.1-2.229c0.442,0.396,0.576,1.104,1.453,1.065
	c0.296-0.326,0.045-0.717,0.192-1.065c0.303-0.345,0.854-0.438,1.355-0.583c0.271-0.518,0.312-1.158,0.389-1.646
	c0.294-0.352,1.003-0.288,1.453-0.483c0.269-0.376,0.165-1.127,0.581-1.356c2.469,0.178,3.918,1.377,5.229,2.711
	c1.684-1.252,2.809,2.138,3.874,0.098c0.574-0.114,0.74,0.292,1.161,0.289c1.342-0.004,1.762-1.565,0.678-2.323
	c-0.151-1.638,0.261-2.466,1.84-2.711c0.453-0.071,0.844-0.485,1.359-0.582c2.207-0.411,4.42,0.346,6.004,1.065
	C48.586,2.67,48.287,4.22,48.613,4.935 M57.33,5.227c-0.357,0.343-1.018,0.124-1.452,0C55.18,4.122,57.764,3.934,57.33,5.227
	 M53.455,4.935c0.122,0.274,0.122,0.598,0,0.872C52.887,6.089,52.334,5.771,52.1,5.42C52.184,4.677,52.848,4.707,53.455,4.935
	 M46.872,7.163c0.03,0.294,0.299,0.347,0.194,0.776c-0.471,0.445-1.203-0.042-1.647,0.097c0.069-0.265-0.19-0.195-0.194-0.387
	C45.24,6.931,46.292,7.03,46.872,7.163 M50.454,9.101c-0.569,0.021-1.047-0.052-1.259-0.388V8.228
	C50.012,7.542,51.521,8.304,50.454,9.101 M45.518,9.003c-0.033,0.848-1.525,0.655-1.746,0.097
	C43.852,8.436,45.389,8.24,45.518,9.003 M26.438,10.166c0.027,0.416-0.133,0.641-0.292,0.873h-0.58
	c-0.136-0.061-0.015-0.374-0.194-0.388C25.508,10.256,26.063,9.735,26.438,10.166 M70.309,16.169
	c0.91-0.421,2.064-0.216,2.422,0.679c-0.098,0.001-0.076,0.118-0.1,0.193c-0.334,0.117-0.725,0.177-1.162,0.195
	c-0.184-0.139-0.347-0.3-0.482-0.484c-0.745,0.232-1.973,0.467-2.905,0.193c0.021-0.529,0.729-0.363,0.97-0.678
	c0.014-0.467-0.488-0.416-0.391-0.97C69.537,14.633,69.736,15.928,70.309,16.169 M72.73,17.428v0.679
	c-0.883,0.039-3.281,0.803-4.069,0C69.384,17.308,71.479,17.38,72.73,17.428 M0,25.08c1.211-1.533,2.8-2.691,4.456-3.777
	c-0.409,1.239-1.725,1.569-2.327,2.615c1.261-0.395,1.997-1.808,3.197-1.938c-0.129,0.486-0.632,0.595-0.773,1.066
	c-1.278,0.499-1.929,1.623-3.004,2.325c-0.405,0.304-0.457,0.96-1.257,0.871C-0.009,25.564,0.875,25.138,0,25.08 M27.889,22.754
	c-0.087,0.716,0.086,1.697-0.869,1.55C26.869,23.535,26.929,22.374,27.889,22.754 M28.764,23.142
	c0.698,0.14,1.359,0.318,1.354,1.163C29.323,24.682,28.523,23.798,28.764,23.142 M40.964,28.08c0.142,0.238-0.055,0.804-0.579,0.679
	C40.354,28.31,40.553,28.09,40.964,28.08 M32.056,28.953c0.14,0.572,0.58,1.23,0.189,1.549c-0.706-0.004-0.271-0.608-0.673-0.967
	c-1.121,0.042-1.995,0.329-2.715,0.773c-0.429,1.783,1.479,1.003,2.423,0.969c0.339,0.387,0.54,1.731,0.097,2.032
	c-0.689,0.045-0.381-0.909-0.774-1.161c-0.418,0.034-0.829,0.076-1.064,0.292c0.003,0.499,0.244,0.882-0.389,0.87
	c-0.554-0.983-1.036-2.37-1.066-3.582C29.01,29.122,30.718,28.829,32.056,28.953 M32.056,31.372h0.289
	c0.27,0.464,0.531,1.506,0.098,1.841C31.704,33.009,31.88,31.771,32.056,31.372 M31.28,34.666c-0.11,0.31-0.267,0.574-0.678,0.582
	C29.866,34.838,30.805,34.093,31.28,34.666 M20.045,63.914c-0.088,1.023-1.724,0.852-2.42,0.484c-0.62,0.291-1.534,0.9-2.226,0.289
	c-0.045-0.334,0.036-0.543,0.096-0.773c0.863,0.086,1.682-0.668,2.325-0.68C18.552,63.221,19.15,63.898,20.045,63.914"/>
<path fill="#333333" d="M63.917,29.049c0.123,0.065,0.554-0.606,0.968-0.291c0.145,0.484-0.4,0.851-0.388,1.548
	c0.01,0.68,0.706,1.459,0.969,2.131c0.363,0.941,0.496,2.162,0.774,3.292c0.504,2.056,0.962,3.532,1.16,5.81
	c0.309,3.512,0.461,8.801-0.191,11.428c-0.075,0.29-0.368,0.618-0.482,1.064c-0.457,1.717-0.031,3.988-2.324,3.197
	c-1.778,0.67-3.963,0.625-6.103,0.967c-2.932,0.472-8.352,0.494-11.815,0.098c-2.174-0.247-4.281-0.661-5.81-1.452
	c-2.354-0.159-4.192-1.146-6.295-1.26c0.44,1.101,1.979,0.927,2.903,1.163c1.374,0.35,2.999,0.482,4.553,0.969
	c0.428,0.133,0.739,0.428,1.162,0.58c1.682,0.609,3.927,0.674,6.102,0.678c2.377,0.004,5.201,0.281,7.166-0.193
	c1.088-0.09,2.256,0.133,3.485,0c0.272-0.028,0.422-0.243,0.679-0.291c0.418-0.077,0.914,0.08,1.355,0
	c1.115-0.197,2.029-0.836,3.292-0.87c0.573-0.017,1.032,0.276,1.649,0.387c1.866,0.336,4.472-0.302,5.709,1.259
	c0.164,0.969-0.303,1.309-0.674,1.743c-0.806,0.181-1.64,0.406-2.326,0.774c-0.358,0.193-0.604,0.597-0.967,0.775
	c-1.229,0.596-2.646,0.516-4.066,1.16c0.457,0.854,1.85,1.146,2.809,1.646c0.514,0.269,1.34,1.274,1.064,2.132
	c-0.736,2.288-4.933,1.03-7.168,2.42c0.18,0.53,0.855,0.563,1.162,0.969c-0.097,1.722-2.393,1.918-4.065,2.423
	c-1.46,0.438-3.132,0.73-4.938,0.87c-3.552,0.273-7.059,0.038-10.268,0.775c-0.562,0.13-0.98-0.15-1.453-0.099
	c-0.263,0.028-0.521,0.273-0.775,0.291c-0.653,0.045-1.289-0.191-1.934-0.098c-0.242,0.035-0.533,0.27-0.777,0.291
	c-1.651,0.152-3.374-0.031-4.843-0.097c-0.102-0.8-0.735-1.23-0.676-1.937c0.108-1.353,2.386-0.902,1.938-2.519
	c-1.477-0.587-5.499,1.059-5.037-1.938c-0.438-0.596-1.659-0.406-2.227-0.869c-2.322-0.146-4.293-0.727-5.424-1.938
	c-0.511-0.546-1.139-1.503-1.259-2.13c-0.456-2.357,1.442-3.233,3.391-3.68c1.385-0.319,3.207,0.229,2.322-2.131
	c-0.958-0.238-2.178-0.211-2.806-0.774c-2.28,0.288-5.489,0.157-7.749,0.192c-0.237,0.269-0.093,0.771-0.387,1.161
	c-1.057,0.979-4.207,0.479-6.489,0.873c-1.071,0.185-2.974,0.747-2.228-1.065c1.015-0.375,1.961,0.105,2.809-0.387
	c0.059-0.416-0.316-0.396-0.292-0.774c0.459-0.867,1.831-0.818,2.906-1.065c0.155-0.328,0.265-0.705,0.386-1.066
	c3.035-0.772,6.262-0.584,9.785-1.064c-1.207-0.73-2.597-1.275-4.067-1.741c-0.445-0.645-2.02-0.599-1.552-1.841
	c1.681,0.11,3.154,1.051,4.456,1.841c0.518,0.066,0.425-0.479,0.872-0.483c2.31,1.414,5.162,2.277,7.94,3.002
	c0.865,0.227,1.776,0.853,2.712,0.482c-2.833-1.007-5.602-2.078-7.844-3.68c-1.859-0.92-3.793-1.759-5.134-3.195
	c-0.022-1.043-0.381-1.746-0.676-2.517c-1.955,1.048-3.677,2.328-4.649,4.356c-1.838,1.2-4.348,2.688-6.393,4.164
	c-0.346,0.25-0.938,0.824-1.548,0.969c-1.062,0.25-2.426-0.217-3.584-0.582c-0.8-1.021,0.253-1.531,1.161-2.034
	c1.049-0.574,2.1-1.496,3.198-2.226c0.994-0.662,2.344-1.365,3.388-2.033c0.36-0.229,0.613-0.602,0.969-0.775
	c0.814-0.398,1.894-0.559,2.907-0.87c0.906-0.282,1.994-0.96,2.809-1.454c0.158-0.096,0.201-0.35,0.387-0.484
	c0.567-0.414,1.027-0.328,1.164-0.87c0.13-0.541-0.162-1.265-0.195-1.841c-0.135-2.41-0.194-5.009,0.289-7.748
	c-0.356,0.256-1.335,0.73-1.45,1.55c-0.949,0.453-2.005,0.197-3.004,0.192c-2.162-0.01-4.374,0.574-6.584,0.582
	c-2.024,0.005-4.586,0.353-6.876,0.193c0.068-0.675,0.649-0.837,0.773-1.453c-0.419,0.134-0.798-0.36-1.162-0.581
	c0.61-0.909-0.126-1.712,0.197-2.518c0.227-0.572,0.954-0.857,1.449-1.259c1.015-0.822,2.136-1.851,3.001-2.613
	c-1.586,0.611-2.999,2.23-4.65,3.1c-0.102-1.221,1.392-1.629,2.228-2.228c0.911-0.93,2.264-1.415,3.1-2.42
	c0.818-0.149,1.098-0.838,1.84-1.066c0.452,0.125-0.328,0.532-0.387,0.775c0.348-0.042,0.466-0.248,0.775-0.096
	c0.143,0.521-0.705,0.777-0.388,1.26c-0.208,0.043-0.186-0.14-0.195-0.292c-0.451,0.192-0.497,0.359-0.386,0.968
	c-1.77,1.362-3.492,2.773-5.231,4.165c2.721-1.317,5.457-3.454,7.942-5.326c0.381-0.153,0.199,0.25,0.387,0.291
	c0.412-0.168-0.219-0.584-0.195-0.97l-0.775,0.097c-0.234-0.202,0.086-0.43-0.097-0.58c-0.377-0.025-0.359,0.349-0.772,0.292
	c0.869-1.52-1.274-2.009-1.551-3.294c0.615,0.108,0.934,0.875,1.551,0.679c-0.64-1.524-2.713-2.451-3.487-4.165
	c1.033-0.127,0.648-1.674,1.358-2.131c-0.919,0.157-1.672,1.295-2.424,1.938c0.124,0.079,0.71,0.164,0.873,0.484
	c-0.084,0.496-0.42,0.741-0.873,0.871c-0.086,0.205-0.292,0.286-0.289,0.581c-0.599,0.247-1.096,0.8-1.647,1.259
	c-0.49,0.408-1.094,1.093-1.645,0.873c-0.471-0.118,0.235-0.551,0.289-0.775c-0.042-2.372,2.807-4.086,4.456-5.326
	c0.496-0.375,1.163-1.477,1.742-1.55c0.994-0.124,2.212,1.2,3,1.646c0.258,0.146,0.619,0.152,0.875,0.292
	c1.565,0.861,2.653,2.476,4.162,3.196c0.181-0.171,0.642-0.07,0.97-0.097c2.506,1.496,4.539,3.465,6.39,5.618
	c-0.494,0.956-1.979,0.924-2.323,2.033c0.129,0.753-0.052,1.188,0,1.84c0.545-0.292,0.766-2.571,1.453-2.613
	c0.701-0.047,0.235,0.788,0.969,0.87c0.979-0.505,0.662-2.306,1.837-2.615c-0.135,2.328-2.083,4.169-2.32,6.391
	c-1.311,3.088,2.122,4.256,3.58,5.812c-0.048,0.341-0.144,0.629-0.098,1.064c0.332,0.348,1.009,0.35,1.453,0.581
	c0.337,0.044,0.059-0.524,0.291-0.581c0.306,0.053,0.312,0.398,0.774,0.29c-0.182-0.655-0.421-1.254-0.871-1.646
	c-0.364-0.039-0.829,0.322-1.064,0.098c0.014-0.471,0.577-0.393,0.582-0.873c-0.36-1.029-1.151-1.625-1.551-2.615
	c-0.696-0.174-1.539-0.202-1.937-0.678c0.171-0.934,1.26-0.749,2.226-0.677c0.454-0.55-0.129-1.222-0.483-1.743
	c0.138-1.73,0.134-4.725-0.192-6.198c0.344-0.729,1.39-1.246,2.226-1.162c-0.012,0.826-0.843,0.834-1.159,1.356
	c0.746,2.239,2.577,3.566,2.517,5.908c-0.039,1.506,1.275,2.546,1.451,4.164c-0.206,0.213-0.47,0.369-0.967,0.29
	c0.023,0.482,0.041,0.414,0.097,0.775c1.331-0.207,2.086-1.253,3.004-1.936c0.933-0.699,1.894-1.374,2.904-2.033
	c-1.058-1.074-0.992-3.271-1.551-4.841c-0.331-0.186-0.601-0.432-1.063-0.485c-0.779-0.932-2.316-1.109-2.614-2.519
	c1.575,0.076,2.614,1.515,4.067,2.034c0.382,1.83,1.309,3.57,1.356,5.423c0.284,0.192,0.614-0.244,0.869-0.388
	c-0.183-1.274-1.12-3.203,0.194-3.776c-0.659-0.695-1.255-1.456-1.839-2.229c-0.418,0.034-0.435,0.471-0.97,0.388
	c-0.65-0.493-0.322-1.729,0.097-2.226c-0.218-0.331-0.847-0.252-1.161-0.485c-0.257-0.487-0.458-1.026-0.388-1.841
	c0.214-0.271,0.537-0.432,0.679-0.775c-0.523-0.896-0.376-2.466-0.679-3.583c-0.523,0.024-0.755,0.34-1.162,0.484
	c-0.054,0.573,0.095,0.938,0.195,1.356c-0.12,0.398-0.407,0.628-0.583,0.967c0.157,0.625-0.114,0.975,0,1.55
	c0.243,1.226,1.696,1.382,2.035,2.516c-1.701,0.018-2.338-1.854-3.679-2.516c-0.61-0.996,0.411-1.43,0.968-1.839
	c-0.713-2.529,0.255-4.769,2.324-5.133c-6.356,0.013-12.733,1.195-19.662,1.355c0.012-0.137,0.017-0.274-0.094-0.29
	c0.738-0.922,2.474-0.513,4.066-0.679c4.766-0.495,10.257-1.049,15.494-1.452c2.907-0.225,5.806,0.316,8.328-0.775
	c-2.224,0.003-4.896-0.018-6.973,0.195c-0.316,0.032-0.602,0.133-0.871,0.291c-3.618,0.121-7.866,0.49-11.621,0.774
	c-0.834,0.063-2.005,0.644-2.711-0.193c1.354-0.694,3.162-0.411,4.744-0.58c1.09-0.119,2.997-0.319,4.746-0.486
	c-0.31-0.203-0.76-0.179-0.968-0.677c-0.733-0.27-1.674,0.355-2.228-0.096c0.248-1.07,2.255-0.59,3.484-0.678
	c3.737-0.266,8.404-0.494,12.109-0.969c0.913,0.177,1.574,0.024,2.227,0.484c4.226-0.702,9.441-0.744,14.039-1.162
	c1.461-0.132,2.963-0.894,4.168-0.098c-0.512,0.881-2.457,0.322-3.394,0.775c0.655,0.799,1.14,1.767,1.938,2.421
	c1.254-0.957,2.396-0.497,3,0.775c0.851-0.085,0.809-1.065,1.746-1.065c0.147-0.419,0.555-0.558,0.48-0.969
	c-0.173-0.971-1.171-0.336-1.84,0c-0.375-0.741-0.485-1.874-0.289-2.615c0.263-1.008,1.441-1.657,1.547-2.711
	c-0.15-0.491-0.713-0.04-1.062-0.387c-0.319-1.336,1.631-1.511,1.062-3.1c0.533-0.921,0.906-2,1.359-3.002
	c1.312,0.361,1.18,2.477,0.967,3.584c0.854,0.435,0.99,2.539,1.937,2.711c0.519,0.095,0.617-0.455,1.357-0.388
	c0.396,0.183,0.479,0.687,0.676,1.064c0.951,0.168,1.863-0.01,2.325,0.485c1.236,1.327-1.545,3.302-2.711,1.743
	c-0.082-0.534,0.775-0.125,0.967-0.387c-0.055-1.936-1.727-0.37-2.709-0.484c-0.689-0.078-0.592-0.521-1.262-0.676
	c-0.383,0.351,0.109,1.568-0.482,1.452c-0.64-0.802-0.174-2.582-0.58-3.39c-0.318,2.203-0.549,4.77,2.324,4.261
	c1.121,0.285,4.568,2.541,1.84,2.905c-0.465,1.054-0.956,2.08-1.744,2.807c-0.06,2.062,1.809,2.196,1.744,4.262
	c-1.918,1.042-2.214-1.871-2.714-3.195c0.022,0.887-0.058,1.732,0.099,2.517c0.403,2.057,3.336,2.705,4.166,4.842
	c0.356,0.929,0.168,2.014,0.287,3.196c0.486,0.033,0.977-0.768,1.551-0.968c0.446,0.301,0.957,0.348,1.357,0.483
	c1.166,1.274,1.296,2.903,1.161,5.133c-0.54,1.03-1.873,0.761-2.906,0.775c-1.983,0.027-3.944,0.407-6.101,0.291
	c-0.038-0.621,0.611-0.55,0.675-1.065c0.017-0.715-1.71-0.907-1.548-1.646c0.211-0.949,2.697,0.407,2.423-1.161
	c-0.099-0.56-0.39-0.3-0.97-0.679c-0.288-1.182-0.248-2.15-0.288-3.486c-0.179-0.21-0.353-0.422-0.775-0.387
	c-0.534,1.02,0.104,2.573-0.194,3.485C64.721,28.306,64.143,28.501,63.917,29.049 M63.529,5.42c0.176,0.244,0.176,0.664,0.58,0.678
	c0.207-0.88-0.039-1.706,0.097-2.809c-0.123-0.005-0.136-0.125-0.289-0.096C63.641,3.85,64.059,4.723,63.529,5.42 M64.885,5.614
	c0.076-0.261,0.186-0.632-0.097-0.872C64.848,5.005,64.665,5.511,64.885,5.614 M52.195,11.037c-0.229,0.347-0.174,0.812-0.482,1.064
	c-0.669,0.549-1.472,0.04-2.518,0c-1.228-0.046-2.395,0.39-3.195,0.291c0.027,0.329,0.152,0.557,0.096,0.969
	c-0.385,0.276-1.498,0.332-1.643-0.194c-0.141-0.42,0.33-0.445,0.094-0.678c-1.242-0.015-2.174,0.281-3.387,0.291
	c-0.702,1.29-2.436,1.195-4.359,1.453c-1.643,0.219-3.442,0.493-4.939,0.58c0.631,0.552,1.406,0.957,2.615,0.679l0.292,0.58
	c-1.016,0.723-0.679,2.205-0.968,3.293c-0.442,0.041-0.421-0.748-0.875-0.388c0.31,0.848,1.024,1.266,0.875,2.325
	c-0.184,0.336-0.587,0.448-0.68,0.871c0.114,0.463,0.133,1.03,0.193,1.55c0.317-0.167,0.657-0.311,0.968-0.485
	c0.177-0.864,0.136-1.458,0.678-2.033c-0.179-0.243-0.738-0.614-0.384-1.065c0.879,0.41,1.584,0.995,1.449,2.42
	c0.474,0.768,1.567,0.594,2.327,0.968c0.502,0.25,0.729,0.827,1.256,0.87c0.508,0.684,0.896,1.618,1.554,2.422
	c0.503,0.624,1.321,0.778,1.548,1.356c0.527,1.36-0.371,2.941-1.453,3.099c-0.631,0.092-1.164-0.363-1.744-0.194
	c-1.553,0.455-1.419,2.494-1.354,4.261c0.594,0.016,0.749-0.41,1.16-0.581c0.072-0.331-0.396-0.123-0.291-0.485
	c0.488-0.998,1.978-0.991,2.229-2.227c1.6-0.532,2.711-1.787,3.971-2.711c0.834-0.613,2.059-0.914,2.42-2.033
	c-1.531,0.439-2.185,2.263-3.774,2.324c-0.173-0.088-0.181-0.34-0.292-0.484c0.214-0.336,0.51-0.586,0.68-0.969l0.581-0.098
	c0.498-0.652,1.435-1.401,2.421-2.225c0.491-0.414,2.086-1.988,2.613-2.033c1.152-0.102,1.327,1.332,2.423,1.645
	c1.663-1.321,3.376,0.955,4.646,2.035c0.677,0.571,1.509,0.758,1.552,1.451c-0.429,0.518-0.238,0.943-0.679,1.454
	c-0.584,0.674-1.909,0.819-2.131,1.549c-0.09,0.299-0.012,0.765,0.1,1.162c0.207,0.179,0.706,0.065,1.062,0.096
	c1.223-2.292,2.164-4.874,3.391-7.166c0.652-0.382,1.307-0.136,1.84,0.097c0.242,0.825,0.604,1.523,1.355,1.842
	c0.239-0.053,0.344-0.238,0.485-0.388c-0.201-0.803-0.647-1.179-0.485-2.036c0.103-0.539,0.867-0.985,0.678-1.646
	c-1.008-0.811-2.145-1.434-2.809-2.615c-0.253-0.448-0.229-1.06-0.773-1.356c-2.73,0.21-5.893,0.282-8.813,0.483
	c-0.813,0.057-1.868,0.507-2.518-0.097c0.202-0.84,1.032-0.463,1.646-0.484c2.34-0.08,4.461-0.369,6.684-0.484
	c0.898-0.045,1.865,0.244,2.615-0.291c-5.383-0.04-10.336,0.634-15.496,0.775c-0.388-0.354-0.89-0.596-1.258-0.967
	c-1.961,0.678-3.414-0.419-3.486-2.229c1.131-1.137,1.674-2.522,3.392-2.711c0.993-0.108,2.048,0.489,2.808-0.097
	c0.379,0.202,0.524,0.637,1.062,0.679c0.572-0.201,0.277-1.116,0.391-1.55l0.582-0.291c0.799,0.126,1.316,0.899,2.031,1.065
	c0.311,0.071,0.594-0.139,0.875,0c0.592,0.297,0.436,1.148,1.258,1.258c0.338-0.539-0.396-0.735-0.195-1.452
	c0.283-0.335,0.75-0.478,1.355-0.486c0.298-0.649,1.098-1.276,0.678-2.324C53.448,10.802,52.881,10.975,52.195,11.037
	 M48.904,11.133c-2.223,0.296-4.725,0.129-6.391,0.679c-0.406-0.296-1.252-0.078-1.646,0.192c0.442-0.088,0.467,0.243,0.87,0.195
	c0.445-0.501,1.123-0.14,1.841-0.195c2.18-0.167,5.036-0.587,7.554-0.676C50.639,10.531,49.682,11.031,48.904,11.133 M55.296,11.328
	c-0.553,1.028-0.823,2.339-2.13,2.614c-0.038,0.458,0.396,0.44,0.289,0.969c-0.928,1.709-2.208,0.584-2.904-0.291
	c-1.089,0.434-1.113-0.833-2.033-0.871c-0.082,0.819-0.853,1.906-1.547,1.84c-0.591-0.058-0.4-0.684-1.068-0.776
	c-0.961,0.33-1.774-0.45-2.809-0.29c-1.082,0.168-2.572,2.163-2.033,3.194c0.381,0.727,1.674,0.589,2.81,0.583
	c0.198-0.285,0.17-0.799,0.289-1.163c0.479-0.232,0.979-0.442,1.647-0.483c0.305,0.21,0.571,0.462,0.484,1.065
	c-0.357,0.36-1.216-0.251-1.355,0.194c3.018,0.214,6.387-0.201,9.488-0.485c1.244-0.114,2.846-0.074,4.165-0.192
	c0.622-0.057,1.468-0.589,1.744,0.289c-0.431,0.427-1.003,0.24-1.55,0.29c-3.363,0.312-6.842,0.511-10.46,0.679
	c-1.087,0.051-2.405,0.063-3.198,0.483c0.473,0.562,1.374,0.051,1.941,0c0.916-0.084,1.871-0.06,2.807-0.096
	c3.48-0.14,6.379-0.463,10.266-0.484c0.375-1.238,2.098-1.132,2.034-2.808c-1.085-0.496-1.512-1.651-2.423-2.325
	c-1.123,1.065-2.574,0.144-3.389-0.677c0.027-0.263,0.142-0.345,0.193-0.775C56.176,11.611,55.979,11.229,55.296,11.328
	 M38.932,12.102c0.271,0.063,0.539,0.143,1.16,0.098c-0.029-0.258,0.545,0.09,0.389-0.291
	C40.084,12.008,38.021,11.893,38.932,12.102 M64.885,11.909c-0.197,2.15-0.432,4.964,0.581,7.068
	c0.21-1.667-0.347-4.898,0.292-6.682C65.58,12.05,65.372,11.837,64.885,11.909 M63.432,13.651c0.115,0.114,0.342,0.111,0.582,0.098
	c0.17-0.184,0.071-0.64,0.098-0.969C63.621,12.81,63.434,13.14,63.432,13.651 M30.408,16.46c0.615-0.277,1.065-0.162,1.743-0.291
	v-0.388C31.464,15.535,30.537,15.83,30.408,16.46 M8.717,24.499c0.23,0.411,0.441,0.848,1.064,0.872
	C9.805,24.744,9.129,24.375,8.717,24.499 M67.21,26.726c0.342-0.307,0.067-0.832-0.196-1.065
	C66.895,25.966,66.846,26.626,67.21,26.726 M66.529,49.095c0.326-5.603-0.366-12.185-2.42-16.947
	c-0.789-1.83-1.786-3.901-3.102-5.133h-0.191c-0.649,1.609-1.449,3.068-1.938,4.841c-0.998,1.215-1.611,2.733-2.615,4.068
	c-2.777,3.702-6.746,7.365-11.328,9.008c-0.899,0.321-1.856,0.807-2.812,1.065c-0.416,0.112-0.841,0-1.356,0.095
	c-1.08,0.201-2.262,0.906-3.292,0.969c-0.581,0.037-1.214-0.097-1.837-0.095c-2.438,0.002-4-0.25-5.907-0.582
	c-0.492-0.382-1.116-0.627-1.938-0.678c1.624,1.19,4.283,1.649,6.682,1.84c0.785,0.062,1.651,0.062,2.42,0
	c4.413-0.356,8.51-1.655,11.235-3.39c1.169-0.744,2.297-1.461,3.389-2.035c0.609-0.822,1.621-1.24,2.326-1.938
	c0.342-0.338,0.502-0.916,0.867-1.258c0.24-0.222,0.571-0.267,0.778-0.482c0.331-0.352,0.419-0.948,0.772-1.454
	c0.49-0.689,1.244-1.271,1.647-1.937c0.625-1.037,1.248-2.461,1.743-3.39c0.507-0.95,0.387-2.212,1.549-2.615
	c1.814,3.068,3.404,6.515,4.066,10.749c0.237,1.493,0.703,3.03,0.775,4.455c0.2,4.032-0.494,8.232-0.871,12.202
	C65.73,54.251,66.375,51.699,66.529,49.095 M40.189,29.34c-0.187,0.685-1.215,0.529-1.258,1.356
	c0.914-0.247,1.812-0.508,2.612-0.871C42.125,27.381,38.795,27.402,40.189,29.34 M12.785,28.371
	c0.565,0.824,1.055,1.717,2.224,1.937C14.686,29.304,13.579,28.584,12.785,28.371 M46.971,30.019c-0.259,0-0.555-0.038-0.68,0.095
	c-1.316,1.751-3.531,2.604-5.327,3.874c-0.416,0.126-0.116-0.461-0.483-0.388c-0.252,0.137-0.463,0.312-0.389,0.775
	c2.842,0.196,4.027,2.041,4.455,4.648c2.487,0.623,5.614-0.219,8.232-0.389c1.193-1.517,2.629-2.792,3.39-4.745
	c-3.512,0.192-6.978,0.212-10.749,0.388c-0.914,0.042-2.945,0.237-3.001-0.388c-0.022-0.243,0.892-0.49,1.16-0.678
	c1.692-1.176,3.812-2.773,5.231-4.261C48.146,27.916,46.889,28.708,46.971,30.019 M17.431,29.534
	c0.691,0.214,1.125-0.777,0.872-0.872C18.131,29.073,17.375,28.895,17.431,29.534 M11.911,28.951
	c-0.03,0.256,0.135,0.319,0.389,0.292C12.292,28.981,12.078,28.777,11.911,28.951 M25.76,31.665
	c0.949-0.241,1.002-2.226,0.292-2.808C25.838,29.631,25.639,30.705,25.76,31.665 M38.445,30.211
	c0.158-0.328-0.035-0.685-0.094-1.064h-0.295C38.123,29.725,37.759,30.197,38.445,30.211 M69.242,30.89
	c0.943-0.06,1.423-0.579,1.645-1.356C70.066,29.713,69.618,30.264,69.242,30.89 M49.486,30.019
	c-1.307,1.406-3.188,2.234-4.551,3.581c0.184,0.173,0.639,0.071,0.967,0.098c0.646-0.962,1.339-1.469,2.421-2.131
	c0.712-0.433,1.879-0.541,1.647-1.548H49.486L49.486,30.019z M8.91,31.083c-2.188,1.686-4.503,3.243-6.586,5.037
	c2.485-0.552,4.33-3.098,6.586-3.875c-0.009,0.527-1.274,0.764-0.774,1.163c0.282-0.3,1.267-0.734,1.547-1.356
	c-0.524-0.06-0.515-0.34-0.384-0.871C9.129,31.188,8.996,31.159,8.91,31.083 M20.724,36.99c0.499,1.344,1.573,3.324,1.261,4.552
	c-1.756-0.667-1.214-3.627-2.229-5.037c-0.281,2.136-0.472,4.896,0,6.974c0.767-0.428,1.656-0.731,2.132-1.451
	c1.835-0.489,0.472-1.7,0-3.002c-0.274-0.76-0.587-1.652-0.776-2.324c-0.593-2.147-0.467-4.287-0.484-5.618h-0.289
	C20.098,33.302,20.574,34.833,20.724,36.99 M6.007,32.439c0.611-0.159,1.369-0.693,1.353-1.162
	C6.931,31.686,6.399,31.994,6.007,32.439 M16.853,33.503c0.929,0.749,1.639-1.008,2.518-1.258c-0.046-0.361,0.365-0.874,0-0.968
	C18.726,32.216,17.446,32.521,16.853,33.503 M50.938,31.665c0.104-0.006,0.08-0.124-0.097-0.097
	c-0.688,0.697-1.825,0.949-2.323,1.841C49.611,33.492,50.227,32.283,50.938,31.665 M16.075,32.536
	c0.456,0.262,1.066-0.59,0.968-0.872C16.83,32.065,16.075,31.924,16.075,32.536 M69.436,32.051c0.24,0.013,0.467,0.014,0.584-0.097
	c0.004-0.166-0.076-0.248-0.196-0.291L69.436,32.051 M27.116,34.473c0.669-0.861-0.184-1.945-0.774-2.421h-0.195
	C25.615,33.116,26.041,34.247,27.116,34.473 M50.357,33.311h0.389c-0.159-0.48,0.337-0.309,0.291-0.679
	C50.676,32.726,50.357,32.858,50.357,33.311 M9.199,33.408c0.391-0.095,0.791-0.179,0.775-0.678
	C9.427,32.664,9.346,33.071,9.199,33.408 M2.809,34.764c0.963-0.556,1.986-1.047,2.614-1.937
	C4.383,33.305,3.652,34.088,2.809,34.764 M51.812,33.213c0.172,0.176,0.485-0.005,0.385-0.386
	C51.95,32.838,51.82,32.966,51.812,33.213 M8.135,35.151c1.147-0.532,2.318-1.041,3-2.034C10.069,32.853,8.647,34.522,8.135,35.151
	 M47.159,33.408c0.196-0.04,0.758-0.202,0.485-0.388C47.562,33.091,47.205,33.055,47.159,33.408 M34.477,33.892
	c0.377-0.108,0.938-0.544,0.872-0.775C35.072,33.39,34.656,33.521,34.477,33.892 M17.918,34.375c0.363-0.315,0.594-0.4,1.063-0.192
	c-0.022-0.312,0.172-0.409,0.097-0.775C18.447,33.422,18.021,34.156,17.918,34.375 M33.409,35.732
	c0.982,0.448,1.964-0.562,2.908-0.775c-0.02-0.533,0.294-0.739,0.189-1.357C35.414,33.866,34.233,34.871,33.409,35.732
	 M10.268,35.441c0.711-0.287,1.521-0.479,1.74-1.258C11.199,34.373,10.744,34.917,10.268,35.441 M11.332,35.732
	c0.696,0.222,1.5-0.136,1.642-0.775C12.234,34.653,11.585,35.229,11.332,35.732 M38.834,36.409c0.33,0.09-0.062,0.426,0.191,0.678
	c0.812-0.352,1.356-0.968,1.742-1.744C40.053,35.255,39.119,35.748,38.834,36.409 M5.423,36.021c0.32-0.035,0.421-0.289,0.584-0.483
	C5.683,35.572,5.586,35.829,5.423,36.021 M30.697,36.409c-0.061,0.283,0.985-0.402,0.775-0.581
	C31.283,36.089,31.032,36.291,30.697,36.409 M31.184,38.734c-0.306,0.535-0.469,1.209-1.356,1.162
	c-0.194-0.395,0.196-1.029-0.194-1.356c-0.295-0.067-0.353,0.101-0.581,0.096c-0.872,1.933-1.041,4.487,0.97,5.327
	c0.644-1.261,1.051-2.759,1.451-4.261c0.372-0.114,0.261-0.707,0.871-0.581c0.147,1.466-0.571,2.828-0.68,4.357
	c1.008-0.309,0.368-1.742,1.455-2.033c0.307,0.492-0.207,1.172,0,1.549c1.507-0.357,0.029-2.186-0.194-3.1
	c0.459-0.443,0.403-1.406,1.262-1.451c0.305,0.67-0.373,0.994-0.486,1.549c0.648,0.546,0.688,1.697,1.067,2.518
	c0.966-0.389,0.562-2.148,1.449-2.613c0.195-0.594,0.1-1.34,0.584-2.131c0.438-0.723,1.558-1.025,0.58-1.937
	C34.45,35.933,33.068,37.586,31.184,38.734 M49.486,39.798c0.65,0.037,1.731,0.271,2.031-0.291
	C50.71,39.475,50.134,39.671,49.486,39.798 M39.51,41.156c0.682,0,0.879-0.48,0.971-1.066C39.9,39.146,39.023,40.25,39.51,41.156
	 M45.518,40.77c-0.119,0.931,0.437,1.863,0.869,2.322c1.356-0.746,2.965-1.23,3.775-2.519C48.303,40.693,47.529,40.784,45.518,40.77
	 M41.255,42.995c-0.165-0.933-0.431-1.492-1.55-1.063c-0.209,0.791-0.698,1.305-0.581,2.42c1.168,0.75,2.829-0.259,3.874,0.484
	C42.832,43.807,41.786,43.66,41.255,42.995 M37.866,42.511c0.462,0.074,0.571-0.202,0.579-0.581
	c-0.233,0.039-0.209-0.177-0.484-0.098C37.931,42.061,37.809,42.195,37.866,42.511 M35.734,43.577l-0.872-0.582
	c-0.093,0.938,0.303,2.371-0.483,2.614c-1.023-0.144-2.122,0.053-3.293-0.098c-1.072-0.537-2.02-1.686-3.485-1.258
	c0.693,1.107,2.171,1.078,3.583,1.355c1.62,0.318,3.487,0.842,5.229,0.389c0.181-0.812,0.592-2.241,0.483-3.294
	C36.245,42.73,36.345,43.507,35.734,43.577 M26.052,44.834c-0.588-0.734-1.537-1.111-2.13-1.841
	C24.061,43.798,25.077,44.542,26.052,44.834 M22.468,43.285c-0.558,0.908-2.198,0.982-2.422,2.035
	c-0.132,0.623,0.351,2.24,0.774,2.809c0.486,0.646,1.418,0.959,1.939,1.354c0.045-1.586-1.438-2.084-0.97-3.775
	c0.113-0.081,0.26-0.128,0.484-0.098c0.054-0.17-0.116-0.568,0.097-0.58c0.541,0.025,0.717-0.155,1.161,0
	C23.324,44.301,23.231,43.455,22.468,43.285 M25.177,45.802c-0.235-0.409-0.813-0.987-1.161-0.968
	C24.538,44.959,24.596,46.062,25.177,45.802 M37.671,45.9c1.006-0.047,1.873-0.111,2.326-0.483
	c-0.699-0.017-0.845-0.073-1.356,0.097c-0.438-0.045-0.397-0.572-0.872-0.582C37.585,45.244,37.567,45.505,37.671,45.9
	 M28.764,48.03c-0.301-0.539-0.438-1.241-1.163-1.356C27.957,47.159,28.217,47.736,28.764,48.03 M24.404,47.739
	c-0.239-0.277-0.524-0.509-0.777-0.772C23.744,47.305,24.184,47.826,24.404,47.739 M29.439,50.645
	c-0.552-1.162-1.781-2.479-3.001-3.291C27.157,48.734,28.442,49.543,29.439,50.645 M31.767,49.29
	c-0.23-0.579-0.862-1.269-1.261-1.356C30.948,48.361,31.05,49.13,31.767,49.29 M27.794,51.323c-0.132-0.104-0.348-0.613-0.582-0.29
	C27.395,51.084,27.66,51.542,27.794,51.323 M31.572,52.389c0.234,0.014,0.465,0.016,0.579-0.098
	c-0.093-0.421-0.582-0.451-0.774-0.773C31.324,51.924,31.545,52.059,31.572,52.389 M30.506,53.455
	c-0.342-0.145-0.249-0.721-0.679-0.775C29.885,53.007,30.52,53.686,30.506,53.455 M22.468,54.326
	c0.617,0.604,1.998,1.253,3.099,1.646c1.46,0.521,3.252,1.053,4.551,0.871c-2.662-0.889-5.227-1.875-7.843-2.809
	C22.188,54.282,22.385,54.245,22.468,54.326 M31.184,58.877c-0.072-0.25-0.235-0.411-0.486-0.484
	c-0.603,0.461-1.735,0.394-2.322,0.871c0.726,0.553,1.667-0.24,2.229-0.484c0.594,0,1.218,0.848,1.643,0.389
	C31.983,58.98,31.574,58.939,31.184,58.877 M37.09,60.232c-1.161-0.473-2.419-0.866-4.067-1.064c-0.018-0.116-0.106-0.061-0.194,0
	c0.971,0.908,2.827,1.211,4.455,1.16c0.766,0.8,2.392,0.759,3.585,0.68C40.18,60.178,38.373,60.466,37.09,60.232 M36.317,61.686
	c0.172,0.151,0.671,0.479,0.965,0.194c-0.232-0.284-0.494-0.537-0.869-0.68C36.331,61.314,36.283,61.458,36.317,61.686
	 M33.409,61.88c-0.03,0.583,1.333,0.729,1.262,0C34.361,61.859,33.82,61.8,33.409,61.88"/>
<path fill="#3C453D" d="M5.423,23.046c-0.126,0.617-0.817,0.669-0.967,1.259c0.246,0.268,0.634-0.534,0.967-0.194
	c-0.513,1.035-1.677,1.423-2.325,2.324c1.136-0.379,1.722-1.312,2.809-1.743c0.094,0.48-0.256,0.517-0.291,0.872
	c-1.491,0.931-2.856,1.984-4.069,3.195c0.427-0.06,0.73-0.24,0.875-0.581c1.321-0.711,2.495-1.571,3.584-2.518
	c0.74,0.05,0.829-0.907,1.45-0.677c-1.607,2.072-4.13,3.229-6.101,4.938c-0.159,0.296-0.631,0.676-1.064,0.387
	c0.015-0.498,0.339-0.693,0.581-0.968c-0.079-0.213-0.457-0.126-0.484-0.387c0.059-0.853,0.041-1.135,0.095-2.131
	c1.255-1.522,3.182-2.372,4.553-3.777L5.423,23.046L5.423,23.046z M1.356,27.887c0.267-0.125,0.888-0.397,0.678-0.678
	C1.862,27.49,1.376,27.457,1.356,27.887"/>
</svg>
