<!DOCTYPE svg PUBLIC "-//W3C//DTD SVG 1.1//EN" "http://www.w3.org/Graphics/SVG/1.1/DTD/svg11.dtd" [
	<!ENTITY ns_flows "http://ns.adobe.com/Flows/1.0/">
]><svg xmlns="http://www.w3.org/2000/svg" width="50" height="57" viewBox="0 0 50 57"><path fill="#333" d="M49.106 35.308l-.418-9.025c-.066-1.465-.48-2.887-1.163-4.175.582-1.24.857-2.61.782-4.024-.3-5.772-.8-11.345-1.442-16.192L46.64 0H3.35l-.29 2.45.002-.004c-.608 4.716-1.08 10.084-1.37 15.637-.076 1.414.2 2.784.782 4.024-.684 1.288-1.095 2.71-1.163 4.175l-.417 9.025L0 57.197h23.762l.01-.028h2.458l.008.027H50l-.894-21.89zM25 2.626h19.316c.607 4.685 1.08 10.047 1.37 15.593.06 1.17-.223 2.296-.806 3.272-.24.41-.532.782-.858 1.115-.217.224-.45.424-.695.607-.1.074-.206.138-.312.206-.163.107-.33.203-.505.294-.12.062-.24.128-.367.182-.267.114-.54.21-.822.285-.095.025-.193.04-.292.06-.242.05-.49.087-.74.104l-.162.01v-5.348H32.05v1.274c0 .02-.013.04-.013.064v4.03H17.963v-4.03c0-.023-.012-.043-.013-.065v-1.276H9.874v5.351l-.162-.01c-.25-.018-.498-.056-.74-.105-.098-.02-.197-.034-.293-.06-.283-.073-.556-.17-.822-.284-.126-.054-.247-.12-.368-.182-.173-.09-.34-.187-.505-.294-.104-.068-.21-.132-.31-.206-.246-.184-.48-.384-.697-.607-.327-.333-.617-.706-.86-1.115-.58-.977-.864-2.104-.803-3.273.29-5.547.762-10.91 1.37-15.594H25zm12.5 19.032v6.578h-2.837V21.658H37.5zm-22.163 0v6.578H12.5V21.658h2.837zm24.416 32.885H2.686l.297-7.198c0-.138-.008-.274 0-.414l.95-20.525c.03-.615.136-1.222.315-1.807.043.043.09.08.136.12.137.13.275.254.42.372.032.028.065.05.098.077 1.153.917 2.51 1.507 3.966 1.726.096.016.19.033.288.044.136.017.274.024.412.034.102.006.202.02.304.024v3.86h1.275c.013 0 .024.008.037.008h5.463c.013 0 .024-.008.038-.008h1.263v-1.243c0-.022.013-.04.013-.062V27h14.077v2.55c0 .022.012.04.013.062v1.243h1.263c.014 0 .025.008.037.008h5.464c.014 0 .024-.008.037-.008h1.276v-3.862c.103-.004.203-.02.304-.023.14-.01.276-.017.413-.033.097-.01.192-.028.287-.044 1.456-.22 2.813-.81 3.967-1.726l.1-.077c.143-.118.282-.243.418-.37.045-.04.093-.08.137-.122.18.585.287 1.19.315 1.807l.95 20.526c.007.14 0 .277 0 .415l.297 7.198h-7.56z"/></svg>