<!DOCTYPE svg PUBLIC "-//W3C//DTD SVG 1.1//EN" "http://www.w3.org/Graphics/SVG/1.1/DTD/svg11.dtd" [
	<!ENTITY ns_flows "http://ns.adobe.com/Flows/1.0/">
]><svg xmlns="http://www.w3.org/2000/svg" width="150" height="172" viewBox="0 0 150 172"><path fill="#333" d="M147.32 105.923l-1.255-27.076c-.2-4.395-1.436-8.66-3.49-12.524 1.747-3.72 2.573-7.83 2.348-12.073-.902-17.317-2.4-34.034-4.327-48.577L139.922 0H10.048l-.87 7.348.008-.01C7.363 21.487 5.95 37.592 5.075 54.25c-.224 4.243.605 8.354 2.348 12.074-2.05 3.864-3.286 8.13-3.488 12.524L2.68 105.922 0 171.592h71.285l.026-.085h7.38l.023.085H150l-2.68-65.67zM75 7.878h57.95c1.82 14.054 3.236 30.14 4.11 46.778.18 3.51-.67 6.89-2.418 9.82-.724 1.228-1.597 2.347-2.575 3.346-.65.67-1.35 1.27-2.086 1.822-.3.223-.617.413-.934.618-.49.322-.993.61-1.515.882-.36.188-.723.384-1.1.545-.8.342-1.62.632-2.468.854-.287.073-.583.117-.88.173-.726.15-1.467.264-2.22.316-.16.012-.325.02-.486.03V57.014H96.15v3.826c-.004.068-.04.127-.04.197v12.088H53.89V61.037c0-.07-.035-.13-.04-.196v-3.825H29.622v16.049l-.486-.03c-.753-.053-1.493-.167-2.22-.316-.295-.056-.593-.1-.88-.173-.846-.223-1.667-.513-2.465-.855-.378-.16-.74-.357-1.103-.545-.52-.272-1.024-.56-1.515-.882-.313-.205-.633-.396-.933-.618-.735-.55-1.435-1.15-2.088-1.822-.98-1-1.852-2.118-2.577-3.346-1.745-2.93-2.596-6.31-2.413-9.82.87-16.638 2.287-32.725 4.11-46.778H75zm37.5 57.097V84.71h-8.51V64.974h8.51zm-66.49 0V84.71H37.5V64.974h8.51zm73.25 98.654H8.06l.892-21.596c-.004-.413-.023-.823-.004-1.242l2.854-61.58c.086-1.845.407-3.664.946-5.42.13.13.272.244.41.364.41.384.825.76 1.26 1.113.096.084.195.15.293.23 3.46 2.75 7.53 4.52 11.9 5.177.29.047.574.1.863.132.41.05.823.072 1.236.102.305.015.604.06.912.07v11.581h3.827c.037 0 .07.023.11.023h16.39c.04 0 .072-.023.113-.023h3.788v-3.73c.005-.066.04-.12.04-.187v-7.65h42.22v7.65c0 .067.036.12.04.188v3.73h3.787c.04 0 .076.022.11.022h16.393c.04 0 .073-.023.11-.023h3.827V80.982c.308-.012.61-.056.91-.07.417-.03.83-.053 1.24-.103.29-.033.577-.086.86-.133 4.37-.656 8.44-2.426 11.9-5.177.1-.08.197-.146.297-.23.43-.355.85-.73 1.257-1.114.136-.12.28-.234.41-.363.54 1.755.862 3.574.947 5.42l2.854 61.58c.02.418 0 .828-.002 1.24l.89 21.596h-22.68z"/></svg>