<?xml version="1.0" encoding="utf-8"?>
<!-- Generator: Adobe Illustrator 14.0.0, SVG Export Plug-In . SVG Version: 6.00 Build 43363)  -->
<!DOCTYPE svg PUBLIC "-//W3C//DTD SVG 1.1//EN" "http://www.w3.org/Graphics/SVG/1.1/DTD/svg11.dtd">
<svg version="1.1" id="Layer_1" xmlns="http://www.w3.org/2000/svg" xmlns:xlink="http://www.w3.org/1999/xlink" x="0px" y="0px"
	 width="55px" height="37.89px" viewBox="0 0 55 37.89" enable-background="new 0 0 55 37.89" xml:space="preserve">
<path fill="#333333" d="M48.768,16.845c3.09-0.254,5.186-1.658,5.99-3.564c-1.113,0.685-4.572,1.432-6.484,0.72
	c-0.092-0.448-0.196-0.875-0.301-1.26c-1.453-5.345-6.438-9.65-11.66-9.13c0.424-0.172,0.851-0.329,1.278-0.473
	c0.575-0.205,3.945-0.755,3.416-1.943c-0.446-1.048-4.567,0.791-5.343,1.031C36.688,1.839,38.381,1.177,38.562,0
	c-1.568,0.215-3.109,0.957-4.3,2.036c0.43-0.462,0.755-1.026,0.825-1.633c-4.185,2.674-6.63,8.062-8.608,13.292
	c-1.553-1.506-2.928-2.691-4.164-3.35c-3.464-1.859-7.608-3.795-14.112-6.21c-0.199,2.153,1.065,5.013,4.707,6.916
	c-0.789-0.105-2.232,0.129-3.387,0.406c0.471,2.465,2.007,4.495,6.158,5.478c-1.898,0.126-2.877,0.559-3.769,1.489
	c0.865,1.715,2.976,3.732,6.772,3.318c-4.221,1.819-1.722,5.188,1.713,4.685C14.54,32.475,5.305,32.032,0,26.971
	c13.848,18.87,43.952,11.161,48.438-7.017c3.361,0.028,5.338-1.164,6.562-2.479C53.064,17.804,50.257,17.464,48.768,16.845z"/>
</svg>
